# xmcd
#
# Track frame offsets:
#	150
#	14737
#	27182
#	37307
#	51847
#	81082
#	91782
#	104810
#	120740
#	138825
#	152857
#	165650
#	184982
#	198712
#	215612
#	230260
#	244142
#	296460
#	311895
#	325645
#	338327
#
# Disc length: 4714 seconds
#
# Revision: 2
# Processed by: cddbd v1.5.1PL0 Copyright (c) Steve Scherf et al.
# Submitted via: audiograbber 1.81.03
#
DISCID=31126815
DTITLE=Various Artist - HMV - The Blues Collection
DYEAR=2002
DGENRE=Blues
TTITLE0=Muddy Waters - Hoochie Coochie Man
TTITLE1=John Lee Hooker - I rule my den
TTITLE2=Floyd Dixon - Wino Blues
TTITLE3=Ella Mae Morse - Cow Cow Boogie
TTITLE4=Son House - Between Midnight and Day
TTITLE5=Big Joe Turner - Jumpin' tonight
TTITLE6=T-Bone Walker - My baby left me
TTITLE7=Jimmy Rogers - Sloppy drunk
TTITLE8=Memphis Slim - How long
TTITLE9=Mississippi Fred McDowell - Baby Please don't go
TTITLE10=Lowell Fulson - Stormin' and rainin'
TTITLE11=James Cotton - She Moves Me
TTITLE12=Nina Simone - Gin House Blues
TTITLE13=Dinah Washington - The Blues ain't nothin' but a woman cryin' for her 
TTITLE13=man
TTITLE14=Muddy Waters - Rock me
TTITLE15=George "Harmonica" Smith - Can't hold on much longer
TTITLE16=Billie Holiday - Billie's Blues
TTITLE17=Sonny Terry and Brownie McGhee - Telephone Blues
TTITLE18=John Lee Hooker - I'm going away
TTITLE19=Sonny Terry and Brownie McGhee - Airplane Blues
TTITLE20=Freddie King - Key to the Highway
EXTD=
EXTT0=
EXTT1=
EXTT2=
EXTT3=
EXTT4=
EXTT5=
EXTT6=
EXTT7=
EXTT8=
EXTT9=
EXTT10=
EXTT11=
EXTT12=
EXTT13=
EXTT14=
EXTT15=
EXTT16=
EXTT17=
EXTT18=
EXTT19=
EXTT20=
PLAYORDER=
